<?xml version="1.0" standalone="no"?>
<!DOCTYPE svg PUBLIC "-//W3C//DTD SVG 20010904//EN"
 "http://www.w3.org/TR/2001/REC-SVG-20010904/DTD/svg10.dtd">
<svg version="1.0" xmlns="http://www.w3.org/2000/svg"
 width="1024.000000pt" height="400.000000pt" viewBox="0 0 1024.000000 400.000000"
 preserveAspectRatio="xMidYMid meet">

<g transform="translate(0.000000,400.000000) scale(0.100000,-0.100000)"
fill="#000000" stroke="none">
<path d="M1754 2570 c-26 -10 -54 -48 -54 -70 0 -9 -15 -22 -36 -29 -23 -8
-40 -24 -51 -46 -39 -82 49 -167 129 -124 18 10 30 2 102 -70 l81 -81 -87 0
c-65 0 -90 -4 -102 -16 -44 -44 1 -74 110 -74 l81 0 7 -41 c10 -60 51 -135
109 -196 l51 -54 -89 -82 c-113 -105 -124 -112 -138 -98 -22 22 -77 13 -108
-18 -49 -50 -30 -139 34 -155 15 -3 27 -18 36 -42 26 -73 132 -80 167 -12 15
29 15 53 0 89 -5 10 6 25 33 47 l40 32 11 -38 c16 -60 62 -116 116 -142 39
-19 65 -24 129 -24 138 0 226 58 256 167 l10 40 34 -33 c31 -30 33 -36 28 -79
-4 -40 -2 -51 18 -74 36 -41 87 -46 127 -12 18 15 32 35 32 46 0 12 14 26 39
38 63 33 77 97 32 152 -19 24 -73 32 -116 17 -16 -6 -40 11 -118 85 l-98 92
53 56 c58 61 104 144 114 207 l6 41 96 3 c77 2 97 6 106 21 8 12 8 22 0 35 -9
14 -30 18 -109 22 l-99 5 85 77 c53 49 87 74 93 68 6 -6 27 -10 49 -10 50 0
97 43 97 90 0 34 -46 90 -73 90 -9 0 -21 16 -27 35 -15 44 -44 65 -93 65 -27
0 -45 -7 -64 -26 -23 -23 -25 -31 -20 -80 l6 -53 -52 -45 -51 -44 -38 43
c-165 187 -464 191 -626 9 l-47 -53 -51 49 c-50 48 -51 50 -46 98 3 41 0 53
-19 75 -26 30 -72 42 -105 27z m80 -31 c27 -22 35 -69 16 -99 -7 -11 5 -29 51
-76 l61 -61 -18 -54 c-11 -30 -20 -56 -21 -58 -1 -2 -39 31 -84 72 -77 72 -83
75 -103 62 -31 -22 -64 -18 -93 11 -20 20 -24 31 -19 57 7 38 39 67 72 67 20
0 24 5 24 29 0 32 39 71 70 71 10 0 29 -9 44 -21z m1091 -9 c10 -11 18 -34 18
-50 0 -26 4 -30 28 -30 30 0 69 -40 69 -70 0 -10 -9 -29 -21 -44 -22 -28 -64
-35 -100 -15 -17 9 -31 0 -96 -59 l-77 -70 -23 57 -23 56 61 56 c55 49 61 57
50 76 -17 33 -13 71 9 93 26 26 81 26 105 0z m-490 -55 c76 -19 158 -75 207
-140 21 -27 38 -53 38 -57 0 -5 -155 -8 -345 -8 -269 0 -345 3 -345 13 0 6 15
31 33 54 104 130 251 179 412 138z m490 -370 c0 -20 -7 -20 -585 -20 l-585 0
-3 23 -3 22 588 -2 c580 -3 588 -3 588 -23z m-209 -72 c-14 -58 -65 -150 -105
-191 -24 -24 -73 -58 -109 -75 -62 -30 -75 -32 -172 -32 -94 0 -111 3 -167 29
-100 46 -188 156 -209 264 l-6 32 387 0 387 0 -6 -27z m-529 -304 c19 -7 22
-13 16 -41 -3 -18 -7 -34 -8 -36 -7 -8 -85 40 -85 52 0 46 11 50 77 25z m358
-22 c7 -24 3 -29 -30 -43 -47 -19 -65 -13 -65 25 0 24 6 31 38 44 41 17 48 14
57 -26z m-464 -14 c-6 -21 -11 -59 -11 -85 0 -43 -4 -49 -51 -92 -50 -45 -50
-46 -38 -80 16 -44 1 -82 -37 -96 -51 -20 -104 15 -104 67 0 16 -6 23 -19 23
-10 0 -30 9 -45 21 -72 57 15 167 91 114 19 -14 26 -9 119 79 55 52 100 92
102 91 2 -2 -1 -20 -7 -42z m616 -77 c69 -67 72 -68 94 -52 13 9 34 16 47 16
31 0 72 -43 72 -75 0 -33 -42 -75 -75 -75 -14 0 -24 -4 -21 -9 11 -17 -15 -68
-40 -80 -35 -16 -47 -14 -78 10 -28 22 -36 75 -14 97 10 10 1 24 -40 65 -43
44 -52 59 -52 88 0 20 -7 58 -15 85 -8 27 -15 51 -15 53 0 6 48 -37 137 -123z
m-377 53 c0 -36 -2 -39 -27 -39 -51 0 -73 11 -73 35 0 44 8 50 55 47 l45 -4 0
-39z m112 6 c4 -39 -4 -45 -58 -45 -32 0 -34 2 -34 33 0 42 5 47 51 47 35 0
37 -2 41 -35z m-242 -66 c0 -44 -9 -50 -50 -29 -47 24 -54 34 -46 65 l6 25 45
-22 c27 -13 45 -29 45 -39z m374 35 c12 -32 5 -45 -39 -66 -24 -12 -47 -19
-50 -17 -2 3 -7 19 -11 35 -5 27 -2 30 38 45 56 22 55 22 62 3z m-276 -34 c31
0 32 -2 32 -40 0 -45 -12 -49 -83 -29 -28 7 -37 15 -33 26 3 8 6 24 6 35 0 16
5 19 23 14 12 -3 37 -6 55 -6z m156 -22 c8 -40 1 -46 -57 -54 l-47 -7 0 41 c0
41 0 41 43 45 23 2 45 4 48 5 4 1 9 -12 13 -30z m-143 -76 c83 -5 161 9 221
39 48 25 48 25 48 -13 -1 -47 -31 -108 -72 -144 -93 -82 -291 -66 -361 28 -28
39 -47 90 -47 129 l0 28 67 -31 c51 -24 84 -33 144 -36z"/>
<path d="M2096 2356 c-26 -34 -33 -56 -18 -56 10 0 62 66 62 79 0 20 -18 11
-44 -23z"/>
<path d="M2540 2365 c0 -4 9 -18 20 -32 11 -14 20 -32 20 -39 0 -16 16 -19 24
-5 7 10 -34 73 -51 79 -7 2 -13 1 -13 -3z"/>
<path d="M2151 2334 c-23 -29 -26 -40 -12 -48 7 -5 51 55 51 70 0 13 -21 1
-39 -22z"/>
<path d="M2480 2341 c0 -5 5 -22 10 -37 7 -18 14 -24 21 -17 7 7 6 19 -2 36
-12 26 -29 36 -29 18z"/>
<path d="M2206 2324 c-4 -9 -4 -19 -1 -22 7 -8 35 19 29 29 -8 14 -21 11 -28
-7z"/>
<path d="M2112 2015 c-36 -30 -47 -66 -32 -111 31 -92 158 -98 195 -10 41 98
-82 189 -163 121z"/>
<path d="M2443 2030 c-36 -15 -65 -69 -58 -110 9 -50 44 -81 98 -87 41 -5 49
-2 77 25 24 24 30 39 30 72 0 52 -13 76 -50 95 -32 17 -64 18 -97 5z"/>
<path d="M2300 1815 c-11 -13 -11 -19 3 -32 23 -23 69 -10 65 20 -4 27 -49 35
-68 12z"/>
</g>
</svg>
